<?xml version="1.0" standalone="no"?>
<!DOCTYPE svg PUBLIC "-//W3C//DTD SVG 20010904//EN"
 "http://www.w3.org/TR/2001/REC-SVG-20010904/DTD/svg10.dtd">
<svg version="1.0" xmlns="http://www.w3.org/2000/svg"
 width="512.000000pt" height="512.000000pt" viewBox="0 0 512.000000 512.000000"
 preserveAspectRatio="xMidYMid meet">

<g transform="translate(0.000000,512.000000) scale(0.100000,-0.100000)"
fill="#000000" stroke="none">
<path d="M787 4108 c-32 -17 -85 -61 -120 -97 -121 -129 -184 -302 -174 -481
6 -94 32 -194 62 -234 14 -18 16 -18 83 3 149 45 267 163 315 316 29 92 31
253 3 335 -25 74 -86 190 -100 190 -6 0 -37 -15 -69 -32z"/>
<path d="M2869 1801 c-123 -40 -243 -131 -310 -234 -46 -71 -76 -149 -129
-332 -54 -187 -94 -285 -145 -353 -53 -71 -75 -92 -150 -137 -155 -93 -401
-116 -735 -70 -268 37 -420 1 -420 -100 0 -171 397 -450 735 -516 75 -15 269
-19 281 -6 15 14 17 141 4 227 -28 184 -13 250 75 328 82 72 268 157 411 187
68 15 116 16 334 10 290 -7 352 0 468 57 85 41 183 137 217 210 13 29 29 85
36 124 35 212 -109 473 -319 576 -82 41 -89 43 -191 45 -82 2 -119 -1 -162
-16z"/>
</g>
</svg>
